<svg xmlns="http://www.w3.org/2000/svg" viewBox="0 0 433.9 457.05"><path d="M304.78,75.82a54.22,54.22,0,1,0-74.67,50.08l0,17.12-48.16-.11a19.37,19.37,0,0,0-.09,38.73l48.16.11-.59,254.91c-66.85-7.77-119.27-52.5-125-107.83l20.82.05c3.32,0,6.35-2.23,7.82-5.77a11.94,11.94,0,0,0-.91-10.88L90.49,248.06a7.89,7.89,0,0,0-13.73,0L34.88,312a12,12,0,0,0-1,10.87c1.46,3.55,4.48,5.8,7.79,5.8l21.79.06c2.84,39.42,22.25,76,55.42,103.9,35,29.47,81.46,45.77,130.71,45.88s95.74-16,130.92-45.28c33.3-27.75,52.88-64.24,55.9-103.64l21.79,0c3.32,0,6.35-2.23,7.82-5.77a12,12,0,0,0-.91-10.87l-41.58-64.18a7.89,7.89,0,0,0-13.74,0l-41.87,64a12,12,0,0,0-1,10.87c1.46,3.55,4.48,5.8,7.79,5.81l20.83,0c-6,55.31-58.66,99.79-125.55,107.25l.58-254.9,48.17.11a19.37,19.37,0,1,0,.09-38.73l-48.17-.11,0-17.12A54.3,54.3,0,0,0,304.78,75.82Zm-79.39-.18a25.18,25.18,0,1,1,25.11,25.23A25.21,25.21,0,0,1,225.39,75.64Z" transform="translate(-33.05 -21.48)"/></svg>