<svg xmlns="http://www.w3.org/2000/svg" viewBox="0 0 420 420"><path d="M460,94.93C460,64.59,436.49,40,407.5,40H92.5C63.51,40,40,64.59,40,94.93V314.64c0,30.33,23.51,54.92,52.5,54.92H344.13a25.72,25.72,0,0,1,18.56,8.05L437.58,456a12.71,12.71,0,0,0,18.56,0,14.06,14.06,0,0,0,3.86-9.72Zm-231.16,76a69,69,0,0,1,6,11c11.24,26,10.32,65.28-24.73,101.78A11.34,11.34,0,0,1,194,284a11.48,11.48,0,0,1-.74-15.71c.14-.17.29-.33.45-.49,11-11.43,17.64-22.83,21.24-33.51a45.08,45.08,0,0,1-24.42,7.14,45.77,45.77,0,1,1,19.82-87l.21.11a38.46,38.46,0,0,1,12.31,8.9A46.64,46.64,0,0,1,228.84,170.89Zm99.91,63.36a45,45,0,0,1-24.41,7.14,45.77,45.77,0,1,1,19.82-87l.21.11a38.35,38.35,0,0,1,12.31,8.9,47.78,47.78,0,0,1,6,7.47,69.86,69.86,0,0,1,6,11c11.24,26,10.29,65.28-24.73,101.78a11.34,11.34,0,0,1-16.09.27,11.49,11.49,0,0,1-.74-15.71l.45-.49c11-11.43,17.64-22.83,21.27-33.51Z" transform="translate(-40 -40)"/></svg>