<svg xmlns="http://www.w3.org/2000/svg" viewBox="0 0 300 380"><path d="M335.27,242.39c22.85-15.44,42.75-40.3,42.75-80v-1c0-25.25-9.41-47.18-28-65.18l-.28-.26c-25.12-23-62.7-35.13-108.7-35.13H112.63c-7.46,0-13.5,5.44-13.5,12.16V428.63c0,6.71,6,12.15,13.5,12.15H248.11c44.07,0,81.44-9.74,108.05-28.18,28.11-19.47,43-47.48,43-81v-1C399.13,290.71,377.18,260.61,335.27,242.39Zm-86.08,138H168.36V279.2h73.25c29.6,0,53,4.8,67.69,13.87,13.13,8.12,19.52,19.55,19.52,34.95v1C328.82,375.39,273.13,380.39,249.19,380.39ZM234,219.32H168.36V121.17h68.92c44.76,0,70.42,16.68,70.42,45.77v1C307.7,212.65,261.53,219.32,234,219.32Z" transform="translate(-99.13 -60.78)"/></svg>