<svg xmlns="http://www.w3.org/2000/svg" viewBox="0 0 455 355"><path d="M22.5,272.11V227.89c18.37-.12,32.12-4.11,41.44-11.91S77.8,190.56,77.8,163.24c0-20.86,1-36.29,3.2-46.31A43.52,43.52,0,0,1,96.25,91.71c8.1-6.79,18.53-11.64,31.29-14.67s30.85-4.54,54.28-4.54h13.35v44.23q-36.73,0-43.93,5.54c-4.82,3.67-7.43,10.89-7.74,21.61q-1.55,44.25-3.87,57.57a63,63,0,0,1-11.1,25.34q-8.66,12.09-32.32,23.2,22.52,10,32.55,23.8c6.8,9.27,10.87,22.56,12,39.95l3.8,53.82c1.54,5.17,5.17,9.07,10.94,11.73s19,3.95,39.74,3.95v44.23H182c-27,0-47.72-2.25-62.45-6.73s-25.24-11.84-31.88-22-9.84-26.78-9.84-49.51c0-25.14-1.22-41.2-3.51-48.28s-6.88-13.43-13.63-19.26-19.51-9-38.2-9.54Zm454.92,0c-18.37.12-32.15,4.11-41.44,12.05s-13.86,25.33-13.86,52.43c0,21-1,36.43-3,46.51a43.18,43.18,0,0,1-15.17,25.19c-8.09,6.82-18.6,11.64-31.36,14.67s-30.93,4.54-54.36,4.54H304.79V383.27q35.26,0,43.18-5.34c5.33-3.58,8.18-10.83,8.53-21.81q1.54-47.37,4.66-60.75a61.55,61.55,0,0,1,12.68-25c6.28-7.8,16.28-14.56,29.91-20.36-14.38-6.88-24.46-13.67-30.14-20.28A53.54,53.54,0,0,1,362.07,208c-2-7.8-3.51-22.36-4.58-43.59s-2.17-33.39-3.56-36.43-4.58-5.72-9.71-7.94-18.25-3.35-39.39-3.35V72.5h13.35c27,0,47.72,2.28,62.38,6.73s25.24,11.84,31.8,22,9.84,26.78,9.84,49.52q0,39.21,3.87,49.34c2.68,6.81,7.23,13,13.94,18.57s19.12,8.64,37.49,9.13v44.28Z" transform="translate(-22.5 -72.5)"/></svg>