<svg xmlns="http://www.w3.org/2000/svg" viewBox="0 0 390 330">
<path d="M430.42,85H69.58C61.52,85,55,92,55,100.65v298.7C55,408,61.52,415,69.58,415H430.42c8.05,0,14.58-7,14.58-15.65V100.65C445,92,438.47,85,430.42,85ZM412.2,357c0,8.64-6.53,15.66-14.58,15.66H132.76c-8.06,0-14.58-7-14.58-15.66V143.05c0-8.64,6.52-15.66,14.58-15.66H397.62c8.05,0,14.58,7,14.58,15.66V357Z" transform="translate(-55 -85)"/>
<path d="M153.41,352.07H373.32c8.05,0,12.89-6.76,10.78-15.12L349.16,197.62c-2.1-8.35-5.56-13.51-7.74-11.53s-6.12,10.19-8.81,18.34L304.07,291c-2.68,8.15-8.65,9-13.31,2l-25-37.78c-4.67-7-12.37-7.15-17.21-.24l-26.82,38.27c-4.84,6.91-13.61,7.82-19.6,2l-8.7-8.43c-6-5.78-14.28-4.52-18.52,2.82l-28.37,49.06C142.28,346.12,145.36,352.07,153.41,352.07Z" transform="translate(-55 -85)"/>
<ellipse cx="153.08" cy="124.89" rx="20.65" ry="22.17"/></svg>