<svg xmlns="http://www.w3.org/2000/svg" viewBox="0 0 400 400"><path d="M423.61,82.07,409.69,69.75A78.51,78.51,0,0,0,298.9,76.41l-39.83,45a24.64,24.64,0,0,0,2.08,34.72l3.74,3.32a24.59,24.59,0,0,0,34.73-2.09l39.83-44.94a24.35,24.35,0,0,1,34.3-2.07l13.9,12.34a24.3,24.3,0,0,1,2.07,34.29l-87.1,98.27a24.24,24.24,0,0,1-29.33,5.46,26.59,26.59,0,0,0-32.12,6l-.67.77a26.6,26.6,0,0,0,7.59,41.23,78.37,78.37,0,0,0,95.1-17.5l87.09-98.26A78.59,78.59,0,0,0,423.61,82.07Z" transform="translate(-50 -50)"/><path d="M238.83,344l-3.74-3.32a24.64,24.64,0,0,0-34.73,2.09l-39.81,44.94a24.34,24.34,0,0,1-34.29,2.08l-13.92-12.35a24.31,24.31,0,0,1-2.07-34.29l87.1-98.26a24.36,24.36,0,0,1,28.9-5.67,28,28,0,0,0,33.25-6.57l.31-.35a26.21,26.21,0,0,0-7.25-40.49,78.19,78.19,0,0,0-95.75,17.14L69.72,307.14h0A78.59,78.59,0,0,0,76.38,418L90.3,430.28a78.58,78.58,0,0,0,110.81-6.67l39.82-44.94A24.57,24.57,0,0,0,238.83,344Z" transform="translate(-50 -50)"/></svg>