<svg xmlns="http://www.w3.org/2000/svg" viewBox="0 0 412 220"><path d="M250,206c-28.42,0-51.5,19.72-51.5,44s23.08,44,51.5,44,51.5-19.7,51.5-44S278.42,206,250,206Z" transform="translate(-44 -140)"/><path d="M450.67,236.6C405.54,186.46,350,140.06,250.12,140h0s-.08,0-.1,0h-.13c-99.91,0-155.42,46.44-200.54,96.58a19.52,19.52,0,0,0,0,26.81C94.45,313.55,150,360,249.87,360h.53a1,1,0,0,1,.34,0c99.51-.23,154.9-46.55,199.94-96.59A19.53,19.53,0,0,0,450.67,236.6ZM250.08,316h-.16c-42.55,0-77.17-29.64-77.17-66s34.62-65.95,77.17-66h.15c42.55.05,77.18,29.65,77.18,66S292.62,316,250.08,316Z" transform="translate(-44 -140)"/></svg>