<svg xmlns="http://www.w3.org/2000/svg" viewBox="0 0 420 435"><path d="M356.14,226.15C336.3,216.35,307,206.86,268,197.67q-62-14.62-78.13-28.1Q177.18,159,177.2,144.05q0-16.35,13.5-26.1,21-15.2,58-15.2,35.9,0,53.87,14.2T326,163.54l85-3.72Q409,101.89,369,67.2T249.59,32.5q-48.56,0-82.88,14.62T114.15,89.71Q95.9,117.66,95.9,149.78q0,44.13,30.36,76.37Z" transform="translate(-40 -32.5)"/><path d="M317.24,378.46q-20.83,17.35-61.91,17.35-38.78,0-61.62-19.5T163.4,315.23l-82.73,8Q89,393.81,131.81,430.65T254.47,467.5q54.87,0,91.64-15.34T403,405.27q20.11-31.53,20.11-67.67c0-18.27-2.71-34.48-8-48.73H280.56c8.09,2.23,14.16,4.05,18.15,5.43q21.82,7.74,30.59,18.2t8.77,25.39Q338.07,361.11,317.24,378.46Z" transform="translate(-40 -32.5)"/><path d="M54.88,274H445.12A14.86,14.86,0,0,0,460,259.16v-3.31A14.86,14.86,0,0,0,445.12,241H54.88A14.86,14.86,0,0,0,40,255.85v3.31A14.86,14.86,0,0,0,54.88,274Z" transform="translate(-40 -32.5)"/></svg>